<svg width="24" height="24" fill="none" xmlns="http://www.w3.org/2000/svg"><path d="M11 8h6m-6 4h6m-6 4h6" stroke="#65605C" stroke-width="2" stroke-linecap="round" stroke-linejoin="round"/><path d="M6.8 11.061c.31 0 .518-.2.518-.51V7.995c0-.354-.22-.579-.593-.579-.2 0-.379.02-.584.156L5.501 8a.404.404 0 00-.195.354c0 .205.15.349.342.349.098 0 .154-.02.242-.08l.373-.26h.02v2.188c0 .31.207.51.517.51zM6.094 17h1.958c.259 0 .406-.159.406-.39 0-.237-.147-.391-.406-.391H6.934v-.02l.642-.554c.547-.474.791-.72.791-1.194 0-.64-.547-1.072-1.404-1.072-.615 0-1.11.262-1.296.681a.568.568 0 00-.046.23c0 .25.16.403.424.403.198 0 .323-.073.46-.274.131-.19.258-.275.444-.275.251 0 .422.153.422.376 0 .21-.112.363-.508.703l-.969.83c-.195.163-.283.31-.283.5 0 .259.146.447.483.447z" fill="#65605C"/></svg>