<svg width="24" height="24" fill="none" xmlns="http://www.w3.org/2000/svg"><path d="M4.346 12.313c0 4.768 3.294 7.719 7.988 7.719 1.16 0 2.032-.112 2.607-.316.492-.185.677-.426.677-.797 0-.39-.241-.65-.733-.65-.13 0-.26.01-.417.037-.613.13-1.123.213-1.856.213-3.952 0-6.559-2.319-6.559-6.16 0-3.757 2.468-6.317 6.142-6.317 3.321 0 5.789 2.068 5.789 5.64 0 1.753-.603 2.96-1.503 2.96-.585 0-.91-.371-.91-1.02v-4.11c0-.632-.352-1.003-.964-1.003s-.965.371-.965 1.002v.306h-.14c-.37-.835-1.196-1.308-2.216-1.308-1.828 0-3.09 1.531-3.09 3.804 0 2.338 1.29 3.924 3.21 3.924 1.067 0 1.837-.51 2.227-1.447h.139c.223.91 1.095 1.438 2.273 1.438 2.254 0 3.637-1.911 3.637-4.74 0-4.194-3.09-6.959-7.478-6.959-4.639 0-7.858 3.117-7.858 7.784zm7.543 2.217c-.984 0-1.568-.807-1.568-2.17 0-1.355.584-2.162 1.568-2.162.992 0 1.614.825 1.614 2.161 0 1.346-.622 2.171-1.614 2.171z" fill="#65605C"/></svg>