<svg width="40" height="40" fill="none" xmlns="http://www.w3.org/2000/svg"><rect x="2" y="2" width="36" height="36" rx="6" fill="#BF3029"/><path fill="#F2F2F2" d="M4 8h32v28H4z"/><path d="M15.274 21.246c.606 0 1.054-.126 1.344-.378.289-.261.434-.593.434-.994v-.098c0-.448-.14-.789-.42-1.022-.28-.243-.659-.364-1.135-.364-.466 0-.863.107-1.19.322a2.55 2.55 0 00-.825.868l-1.05-.91a5.19 5.19 0 01.503-.616c.187-.196.406-.364.659-.504.252-.15.536-.266.854-.35.317-.093.68-.14 1.091-.14.458 0 .883.056 1.275.168.392.112.727.28 1.008.504a2.274 2.274 0 01.896 1.848c0 .308-.052.588-.154.84a2.058 2.058 0 01-.407.672c-.168.187-.368.34-.602.462a2.74 2.74 0 01-.713.266v.07c.28.056.54.15.784.28.252.121.47.285.657.49.187.196.332.434.434.714.113.27.169.583.169.938 0 .43-.084.821-.252 1.176a2.641 2.641 0 01-.715.896 3.22 3.22 0 01-1.091.588 4.89 4.89 0 01-1.428.196c-.458 0-.86-.051-1.205-.154a3.752 3.752 0 01-.924-.378 4.185 4.185 0 01-.7-.56 5.513 5.513 0 01-.518-.658l1.162-.91c.122.196.248.378.379.546.14.159.293.299.462.42.177.112.373.2.588.266a2.7 2.7 0 00.755.098c.598 0 1.055-.14 1.373-.42.317-.29.476-.686.476-1.19v-.098c0-.504-.169-.887-.505-1.148-.335-.261-.811-.392-1.427-.392h-1.037v-1.344h.995zm8.926 5.922c-.607 0-1.134-.112-1.582-.336a2.974 2.974 0 01-1.106-.994c-.29-.43-.504-.957-.644-1.582-.14-.625-.21-1.34-.21-2.142 0-.793.07-1.503.21-2.128.14-.635.355-1.167.644-1.596a2.86 2.86 0 011.106-.98c.448-.233.975-.35 1.582-.35 1.213 0 2.105.443 2.674 1.33.579.887.868 2.128.868 3.724s-.29 2.837-.868 3.724c-.57.887-1.46 1.33-2.674 1.33zm0-1.344c.336 0 .62-.065.854-.196a1.61 1.61 0 00.588-.588c.15-.252.257-.55.322-.896.065-.355.098-.747.098-1.176V21.26a6.3 6.3 0 00-.098-1.162 2.751 2.751 0 00-.322-.91 1.508 1.508 0 00-.588-.574c-.233-.14-.518-.21-.854-.21-.336 0-.625.07-.868.21a1.54 1.54 0 00-.574.574c-.15.252-.257.555-.322.91a6.282 6.282 0 00-.098 1.162v1.708c0 .43.033.821.098 1.176.065.345.173.644.322.896.15.252.34.448.574.588.243.13.532.196.868.196z" fill="#32302E"/><rect x="2" y="2" width="36" height="36" rx="6" stroke="#fff" stroke-width="4"/></svg>