<?xml version="1.0" encoding="utf-8"?>
<!-- Generator: Adobe Illustrator 25.0.0, SVG Export Plug-In . SVG Version: 6.00 Build 0)  -->
<svg version="1.1" id="Слой_1" xmlns="http://www.w3.org/2000/svg" xmlns:xlink="http://www.w3.org/1999/xlink" x="0px" y="0px"
	 viewBox="0 0 24 24" style="enable-background:new 0 0 24 24;" xml:space="preserve">
<style type="text/css">
	.st0{fill:#65605C;}
</style>
<g>
	<path class="st0" d="M14.2,14.9c0,0.8-0.9,1.4-2.1,1.4c-1.1,0-2-0.4-2.3-1.3c-0.3-0.5-0.6-0.7-1.1-0.7c-0.6,0-1,0.4-1,1
		c0,0.2,0,0.4,0.1,0.6c0.5,1.2,1.9,2.2,4.3,2.2c2.7,0,4.4-1.3,4.5-3.4h-2.4C14.2,14.8,14.2,14.8,14.2,14.9z"/>
	<path class="st0" d="M17,11.8h-2.8c-0.3-0.1-0.7-0.2-1.1-0.3l-1.2-0.2c-1.3-0.3-1.9-0.7-1.9-1.4c0-0.8,0.8-1.4,1.9-1.4
		c1,0,1.7,0.4,2.1,1.2c0.3,0.5,0.6,0.7,1.1,0.7c0.6,0,1-0.4,1-0.9c0-0.2,0-0.4-0.1-0.5c-0.5-1.5-2.1-2.3-4.1-2.3
		c-2.5,0-4.3,1.4-4.3,3.4c0,0.7,0.2,1.3,0.6,1.8H7c-0.6,0-1,0.4-1,1s0.4,1,1,1h10c0.6,0,1-0.4,1-1S17.6,11.8,17,11.8z"/>
</g>
</svg>
