<?xml version="1.0" encoding="utf-8"?>
<!-- Generator: Adobe Illustrator 25.0.0, SVG Export Plug-In . SVG Version: 6.00 Build 0)  -->
<svg version="1.1" id="Слой_1" xmlns="http://www.w3.org/2000/svg" xmlns:xlink="http://www.w3.org/1999/xlink" x="0px" y="0px"
	 viewBox="0 0 24 24" style="enable-background:new 0 0 24 24;" xml:space="preserve">
<style type="text/css">
	.st0{fill:#65605C;}
</style>
<path class="st0" d="M18.4,12.7c2-2,2-5.1,0-7.1l0,0c-2-2-5.1-2-7.1,0L9.9,7C9.4,7.6,9,8.2,8.8,8.8C8.1,9,7.5,9.4,7,9.9l-1.4,1.4
	c-2,2-2,5.1,0,7.1l0,0c2,2,5.1,2,7.1,0l1.4-1.4c0.5-0.5,0.9-1.1,1.1-1.7c0.6-0.2,1.2-0.6,1.7-1.1L18.4,12.7z M15.5,12.7l-2.8,2.8
	l-1.5,1.5c-1.1,1.1-2.9,1.1-4,0l-0.2-0.2c-1.1-1.1-1.1-2.9,0-4l1.6-1.6l2.8-2.8l1.6-1.6c1.1-1.1,2.9-1.1,4,0L17,7.1
	c1.1,1.1,1.1,2.9,0,4L15.5,12.7z"/>
<path class="st0" d="M14.1,9.9c-0.4-0.4-1-0.4-1.4,0l-2.8,2.8c-0.4,0.4-0.4,1,0,1.4c0.4,0.4,1,0.4,1.4,0l2.8-2.8
	C14.5,10.9,14.5,10.2,14.1,9.9z"/>
</svg>
