<svg width="24" height="24" viewBox="0 0 24 24" fill="none" xmlns="http://www.w3.org/2000/svg">
<path d="M4.34619 12.313C4.34619 17.0815 7.63965 20.0317 12.334 20.0317C13.4937 20.0317 14.3657 19.9204 14.9409 19.7163C15.4326 19.5308 15.6182 19.2896 15.6182 18.9185C15.6182 18.5288 15.377 18.269 14.8853 18.269C14.7554 18.269 14.6255 18.2783 14.4678 18.3062C13.8555 18.436 13.3452 18.5195 12.6123 18.5195C8.66016 18.5195 6.05322 16.2002 6.05322 12.3594C6.05322 8.60205 8.521 6.0415 12.1948 6.0415C15.5161 6.0415 17.9839 8.11035 17.9839 11.6821C17.9839 13.4355 17.3809 14.6416 16.481 14.6416C15.8965 14.6416 15.5718 14.2705 15.5718 13.6211V9.51123C15.5718 8.88037 15.2192 8.50928 14.6069 8.50928C13.9946 8.50928 13.6421 8.88037 13.6421 9.51123V9.81738H13.5029C13.1318 8.98242 12.3062 8.50928 11.2856 8.50928C9.45801 8.50928 8.19629 10.04 8.19629 12.313C8.19629 14.6509 9.48584 16.2373 11.4062 16.2373C12.4731 16.2373 13.2432 15.7271 13.6328 14.79H13.772C13.9946 15.6992 14.8667 16.228 16.0449 16.228C18.2993 16.228 19.6816 14.3169 19.6816 11.4873C19.6816 7.29395 16.5923 4.5293 12.2041 4.5293C7.56543 4.5293 4.34619 7.64648 4.34619 12.313ZM11.8887 14.5303C10.9053 14.5303 10.3208 13.7231 10.3208 12.3594C10.3208 11.0049 10.9053 10.1978 11.8887 10.1978C12.8813 10.1978 13.5029 11.0234 13.5029 12.3594C13.5029 13.7046 12.8813 14.5303 11.8887 14.5303Z" fill="#65605C"/>
</svg>
