<svg width="24" height="24" viewBox="0 0 24 24" fill="none" xmlns="http://www.w3.org/2000/svg">
<path d="M12.0078 18.1875C14.8203 18.1875 16.5469 16.7969 16.5469 14.5938C16.5469 12.8828 15.5156 11.9219 13.125 11.4453L11.9375 11.2031C10.6016 10.9375 10.0625 10.5078 10.0625 9.8125C10.0625 8.98438 10.8359 8.4375 12 8.4375C12.9688 8.4375 13.6953 8.78906 14.0703 9.64062C14.3359 10.125 14.6641 10.3359 15.1953 10.3359C15.7969 10.3359 16.2031 9.95312 16.2031 9.39062C16.2031 9.1875 16.1719 9.02344 16.1172 8.86719C15.6172 7.39844 14.0625 6.53125 12 6.53125C9.49219 6.53125 7.69531 7.89844 7.69531 9.96094C7.69531 11.6406 8.79688 12.7188 11.0469 13.1641L12.2422 13.3984C13.6562 13.6875 14.1875 14.1094 14.1875 14.8516C14.1875 15.6797 13.3281 16.2891 12.0625 16.2891C10.9844 16.2891 10.1016 15.8984 9.73438 15.0391C9.45312 14.5391 9.13281 14.3516 8.64844 14.3516C8.03906 14.3516 7.60938 14.7656 7.60938 15.3906C7.60938 15.6016 7.65625 15.8203 7.73438 16.0234C8.1875 17.2578 9.67969 18.1875 12.0078 18.1875Z" fill="#65605C"/>
<rect x="7" y="12.75" width="10" height="2" rx="1" fill="#EFE0D0"/>
<rect x="6" y="11.75" width="12" height="2" rx="1" fill="#65605C"/>
</svg>
