<svg width="24" height="24" viewBox="0 0 24 24" fill="none" xmlns="http://www.w3.org/2000/svg">
<path d="M11 8H17" stroke="#65605C" stroke-width="2" stroke-linecap="round" stroke-linejoin="round"/>
<path d="M11 12H17" stroke="#65605C" stroke-width="2" stroke-linecap="round" stroke-linejoin="round"/>
<path d="M11 16H17" stroke="#65605C" stroke-width="2" stroke-linecap="round" stroke-linejoin="round"/>
<path d="M6.80029 11.061C7.11035 11.061 7.31787 10.8608 7.31787 10.5508V7.99463C7.31787 7.64062 7.09814 7.41602 6.72461 7.41602C6.52441 7.41602 6.34619 7.43555 6.14111 7.57227L5.50146 7.99951C5.36475 8.09229 5.30615 8.20947 5.30615 8.35352C5.30615 8.55859 5.45508 8.70264 5.64795 8.70264C5.74561 8.70264 5.80176 8.68311 5.88965 8.62207L6.26318 8.36328H6.28271V10.5508C6.28271 10.8608 6.49023 11.061 6.80029 11.061Z" fill="#65605C"/>
<path d="M6.09424 17H8.05225C8.31104 17 8.45752 16.8413 8.45752 16.6094C8.45752 16.3726 8.31104 16.2188 8.05225 16.2188H6.93408V16.1992L7.57617 15.645C8.12305 15.1714 8.36719 14.9248 8.36719 14.4512C8.36719 13.8115 7.82031 13.3794 6.96338 13.3794C6.34814 13.3794 5.85254 13.6406 5.66699 14.0605C5.63525 14.1338 5.62061 14.2095 5.62061 14.29C5.62061 14.5391 5.78174 14.6929 6.04541 14.6929C6.24316 14.6929 6.36768 14.6196 6.50439 14.4194C6.63623 14.229 6.76318 14.1436 6.94873 14.1436C7.2002 14.1436 7.37109 14.2974 7.37109 14.5195C7.37109 14.7295 7.25879 14.8833 6.86328 15.2227L5.89404 16.0527C5.69873 16.2163 5.61084 16.3628 5.61084 16.5532C5.61084 16.812 5.75732 17 6.09424 17Z" fill="#65605C"/>
</svg>
