<svg width="24" height="24" viewBox="0 0 24 24" fill="none" xmlns="http://www.w3.org/2000/svg">
<path d="M9.03906 18H13.1094C15.5234 18 17.0859 16.6953 17.0859 14.7188C17.0859 13.2266 15.8125 12.0781 14.2891 12.0391V11.9766C15.5938 11.8125 16.5781 10.8359 16.5781 9.53906C16.5781 7.78125 15.2266 6.72656 12.9219 6.72656H9.03906C7.98438 6.72656 7.38281 7.35156 7.38281 8.46094V16.2656C7.38281 17.375 7.98438 18 9.03906 18ZM10.6953 11.2422V9H12.0234C12.8594 9 13.3594 9.42188 13.3594 10.1172C13.3594 10.7969 12.8281 11.2422 11.9766 11.2422H10.6953ZM10.6953 15.7266V13.1406H12.1328C13.125 13.1406 13.7188 13.6094 13.7188 14.4141C13.7188 15.2656 13.1328 15.7266 12.1094 15.7266H10.6953Z" fill="#65605C"/>
</svg>
