<svg width="40" height="40" viewBox="0 0 40 40" fill="none" xmlns="http://www.w3.org/2000/svg">
<rect x="2" y="2" width="36" height="36" rx="6" fill="#BF3029"/>
<rect x="4" y="8" width="32" height="28" fill="#F2F2F2"/>
<path d="M15.2735 21.246C15.8801 21.246 16.3281 21.12 16.6175 20.868C16.9068 20.6067 17.0515 20.2753 17.0515 19.874V19.776C17.0515 19.328 16.9115 18.9873 16.6315 18.754C16.3515 18.5113 15.9735 18.39 15.4975 18.39C15.0308 18.39 14.6341 18.4973 14.3075 18.712C13.9808 18.9173 13.7055 19.2067 13.4815 19.58L12.4315 18.67C12.5808 18.4553 12.7488 18.25 12.9355 18.054C13.1221 17.858 13.3415 17.69 13.5935 17.55C13.8455 17.4007 14.1301 17.284 14.4475 17.2C14.7648 17.1067 15.1288 17.06 15.5395 17.06C15.9968 17.06 16.4215 17.116 16.8135 17.228C17.2055 17.34 17.5415 17.508 17.8215 17.732C18.1015 17.9467 18.3208 18.2127 18.4795 18.53C18.6381 18.838 18.7175 19.188 18.7175 19.58C18.7175 19.888 18.6661 20.168 18.5635 20.42C18.4701 20.672 18.3348 20.896 18.1575 21.092C17.9895 21.2787 17.7888 21.4327 17.5555 21.554C17.3315 21.6753 17.0935 21.764 16.8415 21.82V21.89C17.1215 21.946 17.3828 22.0393 17.6255 22.17C17.8775 22.2913 18.0968 22.4547 18.2835 22.66C18.4701 22.856 18.6148 23.094 18.7175 23.374C18.8295 23.6447 18.8855 23.9573 18.8855 24.312C18.8855 24.7413 18.8015 25.1333 18.6335 25.488C18.4655 25.8333 18.2275 26.132 17.9195 26.384C17.6208 26.636 17.2568 26.832 16.8275 26.972C16.3981 27.1027 15.9221 27.168 15.3995 27.168C14.9421 27.168 14.5408 27.1167 14.1955 27.014C13.8501 26.9207 13.5421 26.7947 13.2715 26.636C13.0101 26.468 12.7768 26.2813 12.5715 26.076C12.3755 25.8613 12.2028 25.642 12.0535 25.418L13.2155 24.508C13.3368 24.704 13.4628 24.886 13.5935 25.054C13.7335 25.2127 13.8875 25.3527 14.0555 25.474C14.2328 25.586 14.4288 25.6747 14.6435 25.74C14.8675 25.8053 15.1195 25.838 15.3995 25.838C15.9968 25.838 16.4541 25.698 16.7715 25.418C17.0888 25.1287 17.2475 24.732 17.2475 24.228V24.13C17.2475 23.626 17.0795 23.2433 16.7435 22.982C16.4075 22.7207 15.9315 22.59 15.3155 22.59H14.2795V21.246H15.2735ZM24.2 27.168C23.5933 27.168 23.066 27.056 22.618 26.832C22.17 26.5987 21.8013 26.2673 21.512 25.838C21.2227 25.4087 21.008 24.8813 20.868 24.256C20.728 23.6307 20.658 22.9167 20.658 22.114C20.658 21.3207 20.728 20.6113 20.868 19.986C21.008 19.3513 21.2227 18.8193 21.512 18.39C21.8013 17.9607 22.17 17.634 22.618 17.41C23.066 17.1767 23.5933 17.06 24.2 17.06C25.4133 17.06 26.3047 17.5033 26.874 18.39C27.4527 19.2767 27.742 20.518 27.742 22.114C27.742 23.71 27.4527 24.9513 26.874 25.838C26.3047 26.7247 25.4133 27.168 24.2 27.168ZM24.2 25.824C24.536 25.824 24.8207 25.7587 25.054 25.628C25.2967 25.488 25.4927 25.292 25.642 25.04C25.7913 24.788 25.8987 24.4893 25.964 24.144C26.0293 23.7893 26.062 23.3973 26.062 22.968V21.26C26.062 20.8307 26.0293 20.4433 25.964 20.098C25.8987 19.7433 25.7913 19.44 25.642 19.188C25.4927 18.936 25.2967 18.7447 25.054 18.614C24.8207 18.474 24.536 18.404 24.2 18.404C23.864 18.404 23.5747 18.474 23.332 18.614C23.0987 18.7447 22.9073 18.936 22.758 19.188C22.6087 19.44 22.5013 19.7433 22.436 20.098C22.3707 20.4433 22.338 20.8307 22.338 21.26V22.968C22.338 23.3973 22.3707 23.7893 22.436 24.144C22.5013 24.4893 22.6087 24.788 22.758 25.04C22.9073 25.292 23.0987 25.488 23.332 25.628C23.5747 25.7587 23.864 25.824 24.2 25.824Z" fill="#32302E"/>
<rect x="2" y="2" width="36" height="36" rx="6" stroke="white" stroke-width="4"/>
</svg>
